PathFileType	3	(X/Y/Z)	RCH0000002 BBF 15.c3d
DataRate	CameraRate	NumFrames	NumMarkers	Units	OrigDataRate	OrigDataStartFrame	OrigNumFrames
100.0	100.0	5	23	mm	100.0	140	276
Frame#	Time	T2			MAN			LASI			RASI			LPSI			LPAT			LKNE			LANK			LMED			LHEE			LTOE			RPAT			RKNE			RANK			RMED			RHEE			RTOE			RPSI			T10			RTHI			LTHI			RTIB			LTIB			
		X1	Y1	Z1	X2	Y2	Z2	X3	Y3	Z3	X4	Y4	Z4	X5	Y5	Z5	X6	Y6	Z6	X7	Y7	Z7	X8	Y8	Z8	X9	Y9	Z9	X10	Y10	Z10	X11	Y11	Z11	X12	Y12	Z12	X13	Y13	Z13	X14	Y14	Z14	X15	Y15	Z15	X16	Y16	Z16	X17	Y17	Z17	X18	Y18	Z18	X19	Y19	Z19	X20	Y20	Z20	X21	Y21	Z21	X22	Y22	Z22	X23	Y23	Z23	

140	1.390	-1207.53213	40.26216	946.73406	-1334.30367	31.11107	991.14591	-1243.66729	81.74880	649.27653	-1233.20847	-94.36576	648.56631	-1348.04321	24.59764	705.53466	-1232.27308	31.54804	384.25381	-1268.32267	94.03894	341.84847	-1321.08363	100.20240	70.32014	-1326.65453	30.87084	89.37682	-1365.08168	64.91709	101.84726	-1275.61708	58.46525	68.51091	-1233.12932	-37.08158	350.60325	-1287.31952	-91.21782	330.73051	-1481.02822	-115.42169	142.07505	-1485.77172	-46.47022	155.63034	-1495.06801	-84.47302	195.52232	-1462.82079	-77.17264	100.07314	-1343.76633	-46.92466	705.86211	-1330.34189	-0.80487	796.32172	-1256.39690	-160.76867	438.27533	-1274.86481	165.83220	465.58274	-1364.02631	-167.23861	254.55538	-1284.34855	159.73293	226.65550	
141	1.400	-1196.17531	40.08444	948.49691	-1322.73734	30.03717	993.69152	-1236.83025	84.17361	651.30166	-1222.26853	-91.51747	650.92727	-1339.58269	24.70663	707.48939	-1229.92348	34.05780	384.82544	-1268.34103	95.26601	343.09325	-1321.89360	98.20648	71.65186	-1324.91658	29.21667	90.86666	-1364.44056	61.81692	103.55329	-1275.27547	57.96773	69.24461	-1211.33575	-35.32253	356.91170	-1264.92019	-89.46829	334.86349	-1453.87077	-115.14826	142.75331	-1459.46368	-46.21452	155.89177	-1469.81200	-84.20037	195.49901	-1434.03302	-76.99557	101.86275	-1333.87214	-46.46932	707.71128	-1321.02680	-0.34264	798.97078	-1239.46495	-159.62256	442.92838	-1273.28249	167.21421	466.78073	-1339.27323	-165.97931	257.96307	-1287.77113	159.80182	227.66646	
142	1.410	-1184.87954	39.91274	950.15225	-1311.23530	29.00638	996.13513	-1230.05912	86.56706	653.26090	-1211.38533	-88.67923	653.17644	-1331.18954	24.74875	709.32583	-1227.51725	36.59587	385.34158	-1268.26735	96.53208	344.29500	-1322.61430	96.38375	72.93579	-1323.18720	27.72768	92.32314	-1363.75481	58.95198	105.22303	-1274.89878	57.57231	69.94158	-1189.63887	-33.54048	363.21941	-1242.56580	-87.70236	339.00616	-1426.70367	-114.85982	143.38986	-1433.12761	-45.93681	156.09952	-1444.54251	-83.90133	195.41631	-1405.24048	-76.80829	103.62468	-1324.04038	-46.06790	709.43863	-1311.75406	0.09562	801.51958	-1222.49359	-158.43243	447.54918	-1271.70662	168.59115	467.95842	-1314.55561	-164.70878	261.33552	-1290.96958	159.95022	228.64652	
143	1.420	-1173.67144	39.74857	951.59745	-1299.82716	28.05464	998.37710	-1223.37318	88.90074	655.09027	-1200.57666	-85.86098	655.20652	-1322.88518	24.66884	710.93344	-1224.98331	39.17761	385.74851	-1267.99716	97.86486	345.41339	-1323.17135	94.87547	74.13413	-1321.47338	26.53804	93.71890	-1362.98526	56.51494	106.82985	-1274.45800	57.36133	70.57027	-1168.12753	-31.68433	369.50961	-1220.28538	-85.87922	343.15364	-1399.44916	-114.52109	143.93183	-1406.68368	-45.60185	156.18559	-1419.18643	-83.54270	195.19684	-1376.37900	-76.57208	105.32038	-1314.29175	-45.76531	710.92653	-1302.53158	0.48720	803.86952	-1205.42658	-157.13802	452.09548	-1270.10116	169.95661	469.09231	-1289.85885	-163.39078	264.62942	-1293.73895	160.24186	229.56931	
144	1.430	-1162.56231	39.59168	952.75094	-1288.52625	27.20932	1000.33736	-1216.76998	91.15043	656.73889	-1189.84561	-83.07378	656.93286	-1314.66964	24.42743	712.22742	-1222.26483	41.80176	386.00450	-1267.44367	99.27736	346.41679	-1323.51623	93.77689	75.21845	-1319.78416	25.73764	95.03259	-1362.10826	54.63671	108.35339	-1273.93484	57.38991	71.10709	-1146.87834	-29.69617	375.76719	-1198.10108	-83.95145	347.30122	-1372.01412	-114.09816	144.33691	-1380.04196	-45.17686	156.09222	-1393.65797	-83.09547	194.77320	-1347.36780	-76.24632	106.91903	-1304.62961	-45.59437	712.08182	-1293.35476	0.81329	805.94113	-1188.21603	-155.68129	456.53435	-1268.41145	171.30152	470.16164	-1265.15476	-161.98546	267.81530	-1295.92705	160.71977	230.41404	
